<svg id="visual" viewBox="0 0 900 675" width="900" height="675" xmlns="http://www.w3.org/2000/svg" xmlnsXlink="http://www.w3.org/1999/xlink" version="1.1" preserveAspectRatio="none">
<g stroke-width="1" stroke-linejoin="bevel">
<path d="M396.1 354L326.3 293L342.3 387Z" fill="#08151b" stroke="#08151b"></path><path d="M396.1 354L391.1 271L326.3 293Z" fill="#09131a" stroke="#09131a"></path><path d="M391.1 271L308.3 253L326.3 293Z" fill="#091219" stroke="#091219"></path><path d="M326.3 293L235.5 349L342.3 387Z" fill="#07181d" stroke="#07181d"></path><path d="M241.5 273L235.5 349L326.3 293Z" fill="#08151b" stroke="#08151b"></path><path d="M248.5 472L346.3 458L342.3 387Z" fill="#061b1f" stroke="#061b1f"></path><path d="M342.3 387L432.1 431L396.1 354Z" fill="#061b1f" stroke="#061b1f"></path><path d="M346.3 458L432.1 431L342.3 387Z" fill="#07181d" stroke="#07181d"></path><path d="M519.9 282L432.1 207L391.1 271Z" fill="#08161c" stroke="#08161c"></path><path d="M308.3 253L241.5 273L326.3 293Z" fill="#08161c" stroke="#08161c"></path><path d="M519.9 282L391.1 271L396.1 354Z" fill="#061a1e" stroke="#061a1e"></path><path d="M391.1 271L342.3 145L308.3 253Z" fill="#08161c" stroke="#08161c"></path><path d="M308.3 253L230.5 202L241.5 273Z" fill="#09131a" stroke="#09131a"></path><path d="M248.5 472L333.3 495L346.3 458Z" fill="#08161c" stroke="#08161c"></path><path d="M346.3 458L422.1 506L432.1 431Z" fill="#061a1e" stroke="#061a1e"></path><path d="M235.5 349L248.5 472L342.3 387Z" fill="#061a1e" stroke="#061a1e"></path><path d="M432.1 431L516.9 347L396.1 354Z" fill="#061a1e" stroke="#061a1e"></path><path d="M140.6 320L178.6 364L235.5 349Z" fill="#061c1f" stroke="#061c1f"></path><path d="M235.5 349L160.6 423L248.5 472Z" fill="#08151b" stroke="#08151b"></path><path d="M516.9 347L519.9 282L396.1 354Z" fill="#061b1f" stroke="#061b1f"></path><path d="M258.5 152L230.5 202L308.3 253Z" fill="#08151b" stroke="#08151b"></path><path d="M241.5 273L184.6 254L235.5 349Z" fill="#07171c" stroke="#07171c"></path><path d="M422.1 506L486.9 455L432.1 431Z" fill="#07191e" stroke="#07191e"></path><path d="M432.1 431L486.9 455L516.9 347Z" fill="#061c1f" stroke="#061c1f"></path><path d="M333.3 495L422.1 506L346.3 458Z" fill="#061c1f" stroke="#061c1f"></path><path d="M230.5 202L184.6 254L241.5 273Z" fill="#091219" stroke="#091219"></path><path d="M432.1 207L342.3 145L391.1 271Z" fill="#09131a" stroke="#09131a"></path><path d="M513.9 136L411.1 152L432.1 207Z" fill="#061b1f" stroke="#061b1f"></path><path d="M432.1 207L411.1 152L342.3 145Z" fill="#061a1e" stroke="#061a1e"></path><path d="M519.9 282L509.9 211L432.1 207Z" fill="#091219" stroke="#091219"></path><path d="M342.3 145L258.5 152L308.3 253Z" fill="#09131a" stroke="#09131a"></path><path d="M230.5 202L185.6 141L184.6 254Z" fill="#07171c" stroke="#07171c"></path><path d="M576.7 385L554.7 317L516.9 347Z" fill="#07171c" stroke="#07171c"></path><path d="M516.9 347L554.7 317L519.9 282Z" fill="#08151b" stroke="#08151b"></path><path d="M519.9 282L598.7 239L509.9 211Z" fill="#07191e" stroke="#07191e"></path><path d="M97.8 374L160.6 423L178.6 364Z" fill="#07191e" stroke="#07191e"></path><path d="M178.6 364L160.6 423L235.5 349Z" fill="#09131a" stroke="#09131a"></path><path d="M184.6 254L140.6 320L235.5 349Z" fill="#09131a" stroke="#09131a"></path><path d="M248.5 472L274.5 553L333.3 495Z" fill="#07181d" stroke="#07181d"></path><path d="M333.3 495L411.1 598L422.1 506Z" fill="#07171c" stroke="#07171c"></path><path d="M222.5 595L274.5 553L248.5 472Z" fill="#08151b" stroke="#08151b"></path><path d="M486.9 455L576.7 385L516.9 347Z" fill="#07181d" stroke="#07181d"></path><path d="M590.7 423L576.7 385L486.9 455Z" fill="#08161c" stroke="#08161c"></path><path d="M411.1 598L504.9 529L422.1 506Z" fill="#07171c" stroke="#07171c"></path><path d="M422.1 506L504.9 529L486.9 455Z" fill="#07181d" stroke="#07181d"></path><path d="M140.6 320L97.8 374L178.6 364Z" fill="#091219" stroke="#091219"></path><path d="M160.6 423L135.6 513L248.5 472Z" fill="#091219" stroke="#091219"></path><path d="M57.8 300L97.8 374L140.6 320Z" fill="#09131a" stroke="#09131a"></path><path d="M504.9 529L542.7 502L486.9 455Z" fill="#08151b" stroke="#08151b"></path><path d="M220.5 98L185.6 141L258.5 152Z" fill="#08161c" stroke="#08161c"></path><path d="M258.5 152L185.6 141L230.5 202Z" fill="#091219" stroke="#091219"></path><path d="M64.8 251L57.8 300L140.6 320Z" fill="#07181d" stroke="#07181d"></path><path d="M542.7 502L590.7 423L486.9 455Z" fill="#08151b" stroke="#08151b"></path><path d="M642.5 296L598.7 239L554.7 317Z" fill="#07181d" stroke="#07181d"></path><path d="M509.9 211L513.9 136L432.1 207Z" fill="#061c1f" stroke="#061c1f"></path><path d="M411.1 152L331.3 60L342.3 145Z" fill="#08161c" stroke="#08161c"></path><path d="M331.3 60L220.5 98L258.5 152Z" fill="#07191e" stroke="#07191e"></path><path d="M583.7 137L513.9 136L509.9 211Z" fill="#07171c" stroke="#07171c"></path><path d="M598.7 239L519.9 282L554.7 317Z" fill="#061c1f" stroke="#061c1f"></path><path d="M320.3 606L411.1 598L333.3 495Z" fill="#08161c" stroke="#08161c"></path><path d="M504.9 529L513.9 573L542.7 502Z" fill="#061a1e" stroke="#061a1e"></path><path d="M642.5 296L554.7 317L576.7 385Z" fill="#091219" stroke="#091219"></path><path d="M222.5 595L320.3 606L274.5 553Z" fill="#061c1f" stroke="#061c1f"></path><path d="M274.5 553L320.3 606L333.3 495Z" fill="#061d1f" stroke="#061d1f"></path><path d="M331.3 60L258.5 152L342.3 145Z" fill="#061b1f" stroke="#061b1f"></path><path d="M77.8 428L135.6 513L160.6 423Z" fill="#08151b" stroke="#08151b"></path><path d="M427.1 46L331.3 60L411.1 152Z" fill="#07191e" stroke="#07191e"></path><path d="M97.8 374L77.8 428L160.6 423Z" fill="#08161c" stroke="#08161c"></path><path d="M135.6 513L222.5 595L248.5 472Z" fill="#08151b" stroke="#08151b"></path><path d="M411.1 598L513.9 573L504.9 529Z" fill="#09131a" stroke="#09131a"></path><path d="M633.5 473L640.5 401L590.7 423Z" fill="#061b1f" stroke="#061b1f"></path><path d="M64.8 251L140.6 320L184.6 254Z" fill="#07181d" stroke="#07181d"></path><path d="M97.8 374L0 379L77.8 428Z" fill="#091219" stroke="#091219"></path><path d="M640.5 401L642.5 296L576.7 385Z" fill="#07171c" stroke="#07171c"></path><path d="M96.8 126L64.8 251L184.6 254Z" fill="#091219" stroke="#091219"></path><path d="M96.8 126L184.6 254L185.6 141Z" fill="#09131a" stroke="#09131a"></path><path d="M590.7 423L640.5 401L576.7 385Z" fill="#061b1f" stroke="#061b1f"></path><path d="M633.5 473L590.7 423L542.7 502Z" fill="#07181d" stroke="#07181d"></path><path d="M476.9 56L427.1 46L411.1 152Z" fill="#09131a" stroke="#09131a"></path><path d="M657.5 149L583.7 137L598.7 239Z" fill="#091219" stroke="#091219"></path><path d="M598.7 239L583.7 137L509.9 211Z" fill="#091219" stroke="#091219"></path><path d="M513.9 136L476.9 56L411.1 152Z" fill="#061a1e" stroke="#061a1e"></path><path d="M569.7 75L476.9 56L513.9 136Z" fill="#08161c" stroke="#08161c"></path><path d="M598.7 599L633.5 473L542.7 502Z" fill="#061b1f" stroke="#061b1f"></path><path d="M155.6 0L152.6 78L220.5 98Z" fill="#07181d" stroke="#07181d"></path><path d="M220.5 98L152.6 78L185.6 141Z" fill="#061a1e" stroke="#061a1e"></path><path d="M262.5 0L220.5 98L331.3 60Z" fill="#07181d" stroke="#07181d"></path><path d="M642.5 296L664.5 245L598.7 239Z" fill="#091219" stroke="#091219"></path><path d="M730.4 309L664.5 245L642.5 296Z" fill="#061d1f" stroke="#061d1f"></path><path d="M729.4 367L642.5 296L640.5 401Z" fill="#08151b" stroke="#08151b"></path><path d="M152.6 78L96.8 126L185.6 141Z" fill="#061a1e" stroke="#061a1e"></path><path d="M393.1 0L331.3 60L427.1 46Z" fill="#061d1f" stroke="#061d1f"></path><path d="M393.1 0L330.3 0L331.3 60Z" fill="#061b1f" stroke="#061b1f"></path><path d="M100.8 606L143.6 607L135.6 513Z" fill="#061c1f" stroke="#061c1f"></path><path d="M135.6 513L143.6 607L222.5 595Z" fill="#061c1f" stroke="#061c1f"></path><path d="M299.3 675L384.1 675L320.3 606Z" fill="#07191e" stroke="#07191e"></path><path d="M411.1 598L470.9 675L513.9 573Z" fill="#061b1f" stroke="#061b1f"></path><path d="M320.3 606L384.1 675L411.1 598Z" fill="#08151b" stroke="#08151b"></path><path d="M299.3 675L320.3 606L222.5 595Z" fill="#061a1e" stroke="#061a1e"></path><path d="M77.8 428L53.8 507L135.6 513Z" fill="#09131a" stroke="#09131a"></path><path d="M0 444L53.8 507L77.8 428Z" fill="#061c1f" stroke="#061c1f"></path><path d="M515.9 0L393.1 0L427.1 46Z" fill="#08151b" stroke="#08151b"></path><path d="M223.5 675L299.3 675L222.5 595Z" fill="#061b1f" stroke="#061b1f"></path><path d="M642.5 75L569.7 75L583.7 137Z" fill="#08161c" stroke="#08161c"></path><path d="M583.7 137L569.7 75L513.9 136Z" fill="#061a1e" stroke="#061a1e"></path><path d="M476.9 56L515.9 0L427.1 46Z" fill="#061c1f" stroke="#061c1f"></path><path d="M330.3 0L262.5 0L331.3 60Z" fill="#061a1e" stroke="#061a1e"></path><path d="M64.8 251L0 306L57.8 300Z" fill="#07181d" stroke="#07181d"></path><path d="M57.8 300L0 379L97.8 374Z" fill="#07181d" stroke="#07181d"></path><path d="M0 233L0 306L64.8 251Z" fill="#09131a" stroke="#09131a"></path><path d="M0 306L0 379L57.8 300Z" fill="#061b1f" stroke="#061b1f"></path><path d="M384.1 675L470.9 675L411.1 598Z" fill="#07171c" stroke="#07171c"></path><path d="M513.9 573L598.7 599L542.7 502Z" fill="#091219" stroke="#091219"></path><path d="M152.6 78L107.8 71L96.8 126Z" fill="#08151b" stroke="#08151b"></path><path d="M96.8 126L0 233L64.8 251Z" fill="#09131a" stroke="#09131a"></path><path d="M155.6 0L107.8 71L152.6 78Z" fill="#061d1f" stroke="#061d1f"></path><path d="M143.6 607L223.5 675L222.5 595Z" fill="#07171c" stroke="#07171c"></path><path d="M664.5 245L657.5 149L598.7 239Z" fill="#07191e" stroke="#07191e"></path><path d="M562.7 675L598.7 599L513.9 573Z" fill="#08161c" stroke="#08161c"></path><path d="M0 126L0 233L96.8 126Z" fill="#061b1f" stroke="#061b1f"></path><path d="M0 379L0 444L77.8 428Z" fill="#08161c" stroke="#08161c"></path><path d="M53.8 507L100.8 606L135.6 513Z" fill="#08161c" stroke="#08161c"></path><path d="M143.6 607L148.6 675L223.5 675Z" fill="#07191e" stroke="#07191e"></path><path d="M0 625L100.8 606L53.8 507Z" fill="#07181d" stroke="#07181d"></path><path d="M577.7 0L515.9 0L569.7 75Z" fill="#091219" stroke="#091219"></path><path d="M569.7 75L515.9 0L476.9 56Z" fill="#08151b" stroke="#08151b"></path><path d="M733.4 456L640.5 401L633.5 473Z" fill="#061c1f" stroke="#061c1f"></path><path d="M733.4 456L729.4 367L640.5 401Z" fill="#09131a" stroke="#09131a"></path><path d="M664.5 245L727.4 173L657.5 149Z" fill="#061c1f" stroke="#061c1f"></path><path d="M729.4 367L730.4 309L642.5 296Z" fill="#08151b" stroke="#08151b"></path><path d="M262.5 0L155.6 0L220.5 98Z" fill="#091219" stroke="#091219"></path><path d="M0 444L0 515L53.8 507Z" fill="#08151b" stroke="#08151b"></path><path d="M83.8 675L148.6 675L100.8 606Z" fill="#091219" stroke="#091219"></path><path d="M100.8 606L148.6 675L143.6 607Z" fill="#061d1f" stroke="#061d1f"></path><path d="M598.7 599L681.5 548L633.5 473Z" fill="#07181d" stroke="#07181d"></path><path d="M715.4 48L642.5 75L657.5 149Z" fill="#091219" stroke="#091219"></path><path d="M657.5 149L642.5 75L583.7 137Z" fill="#09131a" stroke="#09131a"></path><path d="M470.9 675L562.7 675L513.9 573Z" fill="#07181d" stroke="#07181d"></path><path d="M598.7 599L674.5 589L681.5 548Z" fill="#09131a" stroke="#09131a"></path><path d="M681.5 548L733.4 456L633.5 473Z" fill="#09131a" stroke="#09131a"></path><path d="M792.2 304L758.4 230L730.4 309Z" fill="#061a1e" stroke="#061a1e"></path><path d="M642.5 75L577.7 0L569.7 75Z" fill="#061a1e" stroke="#061a1e"></path><path d="M0 95L96.8 126L107.8 71Z" fill="#061c1f" stroke="#061c1f"></path><path d="M0 95L0 126L96.8 126Z" fill="#09131a" stroke="#09131a"></path><path d="M625.5 675L674.5 589L598.7 599Z" fill="#061c1f" stroke="#061c1f"></path><path d="M681.5 548L762.4 523L733.4 456Z" fill="#08151b" stroke="#08151b"></path><path d="M758.4 230L727.4 173L664.5 245Z" fill="#061a1e" stroke="#061a1e"></path><path d="M642.5 75L654.5 0L577.7 0Z" fill="#061c1f" stroke="#061c1f"></path><path d="M730.4 309L758.4 230L664.5 245Z" fill="#061d1f" stroke="#061d1f"></path><path d="M792.2 304L730.4 309L729.4 367Z" fill="#07171c" stroke="#07171c"></path><path d="M77.8 0L0 95L107.8 71Z" fill="#09131a" stroke="#09131a"></path><path d="M0 625L83.8 675L100.8 606Z" fill="#091219" stroke="#091219"></path><path d="M155.6 0L77.8 0L107.8 71Z" fill="#09131a" stroke="#09131a"></path><path d="M562.7 675L625.5 675L598.7 599Z" fill="#061d1f" stroke="#061d1f"></path><path d="M674.5 589L707.4 592L681.5 548Z" fill="#091219" stroke="#091219"></path><path d="M731.4 675L707.4 592L674.5 589Z" fill="#061d1f" stroke="#061d1f"></path><path d="M815.2 365L729.4 367L809.2 444Z" fill="#07191e" stroke="#07191e"></path><path d="M815.2 365L792.2 304L729.4 367Z" fill="#061c1f" stroke="#061c1f"></path><path d="M0 515L0 625L53.8 507Z" fill="#07181d" stroke="#07181d"></path><path d="M707.4 592L762.4 523L681.5 548Z" fill="#07191e" stroke="#07191e"></path><path d="M715.4 48L727.4 173L800.2 138Z" fill="#061c1f" stroke="#061c1f"></path><path d="M715.4 48L657.5 149L727.4 173Z" fill="#07191e" stroke="#07191e"></path><path d="M715.4 48L654.5 0L642.5 75Z" fill="#07171c" stroke="#07171c"></path><path d="M800.2 138L727.4 173L758.4 230Z" fill="#08161c" stroke="#08161c"></path><path d="M809.2 444L729.4 367L733.4 456Z" fill="#08151b" stroke="#08151b"></path><path d="M838.2 199L800.2 138L758.4 230Z" fill="#07171c" stroke="#07171c"></path><path d="M762.4 523L809.2 444L733.4 456Z" fill="#09131a" stroke="#09131a"></path><path d="M0 625L0 675L83.8 675Z" fill="#09131a" stroke="#09131a"></path><path d="M77.8 0L0 0L0 95Z" fill="#061b1f" stroke="#061b1f"></path><path d="M838.2 199L758.4 230L792.2 304Z" fill="#07181d" stroke="#07181d"></path><path d="M807.2 0L713.4 0L715.4 48Z" fill="#07191e" stroke="#07191e"></path><path d="M715.4 48L713.4 0L654.5 0Z" fill="#061c1f" stroke="#061c1f"></path><path d="M900 239L838.2 199L792.2 304Z" fill="#09131a" stroke="#09131a"></path><path d="M900 290L792.2 304L815.2 365Z" fill="#061a1e" stroke="#061a1e"></path><path d="M762.4 523L833.2 533L809.2 444Z" fill="#09131a" stroke="#09131a"></path><path d="M833.2 596L833.2 533L762.4 523Z" fill="#061d1f" stroke="#061d1f"></path><path d="M625.5 675L731.4 675L674.5 589Z" fill="#061d1f" stroke="#061d1f"></path><path d="M833.2 596L762.4 523L707.4 592Z" fill="#07191e" stroke="#07191e"></path><path d="M900 394L900 290L815.2 365Z" fill="#08161c" stroke="#08161c"></path><path d="M731.4 675L833.2 596L707.4 592Z" fill="#07191e" stroke="#07191e"></path><path d="M900 177L845.2 98L838.2 199Z" fill="#07171c" stroke="#07171c"></path><path d="M815.2 365L809.2 444L900 394Z" fill="#07181d" stroke="#07181d"></path><path d="M838.2 199L845.2 98L800.2 138Z" fill="#08161c" stroke="#08161c"></path><path d="M800.2 138L845.2 98L715.4 48Z" fill="#061a1e" stroke="#061a1e"></path><path d="M900 394L809.2 444L900 453Z" fill="#061b1f" stroke="#061b1f"></path><path d="M900 453L809.2 444L833.2 533Z" fill="#07171c" stroke="#07171c"></path><path d="M900 290L900 239L792.2 304Z" fill="#08161c" stroke="#08161c"></path><path d="M900 531L900 453L833.2 533Z" fill="#07181d" stroke="#07181d"></path><path d="M900 75L807.2 0L845.2 98Z" fill="#091219" stroke="#091219"></path><path d="M845.2 98L807.2 0L715.4 48Z" fill="#08151b" stroke="#08151b"></path><path d="M731.4 675L811.2 675L833.2 596Z" fill="#08151b" stroke="#08151b"></path><path d="M900 570L900 531L833.2 533Z" fill="#061d1f" stroke="#061d1f"></path><path d="M900 239L900 177L838.2 199Z" fill="#061a1e" stroke="#061a1e"></path><path d="M900 570L833.2 533L833.2 596Z" fill="#061a1e" stroke="#061a1e"></path><path d="M900 675L900 570L833.2 596Z" fill="#061d1f" stroke="#061d1f"></path><path d="M900 177L900 75L845.2 98Z" fill="#08161c" stroke="#08161c"></path><path d="M811.2 675L900 675L833.2 596Z" fill="#061a1e" stroke="#061a1e"></path><path d="M900 75L900 0L807.2 0Z" fill="#07191e" stroke="#07191e"></path></g></svg>