<svg id="visual" viewBox="0 0 900 900" width="900" height="900" xmlns="http://www.w3.org/2000/svg" xmlnsXlink="http://www.w3.org/1999/xlink" version="1.1" preserveAspectRatio="none">
<path d="M0 55L45 55L45 19L90 19L90 37L135 37L135 55L180 55L180 46L225 46L225 82L270 82L270 46L315 46L315 73L360 73L360 73L405 73L405 73L450 73L450 82L495 82L495 73L540 73L540 82L585 82L585 46L630 46L630 19L675 19L675 46L720 46L720 28L765 28L765 28L810 28L810 82L855 82L855 28L900 28L900 37L900 0L900 0L855 0L855 0L810 0L810 0L765 0L765 0L720 0L720 0L675 0L675 0L630 0L630 0L585 0L585 0L540 0L540 0L495 0L495 0L450 0L450 0L405 0L405 0L360 0L360 0L315 0L315 0L270 0L270 0L225 0L225 0L180 0L180 0L135 0L135 0L90 0L90 0L45 0L45 0L0 0Z" fill="#0f2e35"></path><path d="M0 118L45 118L45 55L90 55L90 118L135 118L135 100L180 100L180 91L225 91L225 127L270 127L270 73L315 73L315 109L360 109L360 100L405 100L405 100L450 100L450 136L495 136L495 145L540 145L540 154L585 154L585 64L630 64L630 64L675 64L675 82L720 82L720 100L765 100L765 64L810 64L810 163L855 163L855 91L900 91L900 73L900 35L900 26L855 26L855 80L810 80L810 26L765 26L765 26L720 26L720 44L675 44L675 17L630 17L630 44L585 44L585 80L540 80L540 71L495 71L495 80L450 80L450 71L405 71L405 71L360 71L360 71L315 71L315 44L270 44L270 80L225 80L225 44L180 44L180 53L135 53L135 35L90 35L90 17L45 17L45 53L0 53Z" fill="#0e2a33"></path><path d="M0 208L45 208L45 154L90 154L90 154L135 154L135 154L180 154L180 145L225 145L225 181L270 181L270 91L315 91L315 217L360 217L360 172L405 172L405 118L450 118L450 181L495 181L495 199L540 199L540 172L585 172L585 82L630 82L630 109L675 109L675 109L720 109L720 181L765 181L765 136L810 136L810 181L855 181L855 136L900 136L900 181L900 71L900 89L855 89L855 161L810 161L810 62L765 62L765 98L720 98L720 80L675 80L675 62L630 62L630 62L585 62L585 152L540 152L540 143L495 143L495 134L450 134L450 98L405 98L405 98L360 98L360 107L315 107L315 71L270 71L270 125L225 125L225 89L180 89L180 98L135 98L135 116L90 116L90 53L45 53L45 116L0 116Z" fill="#0d2630"></path><path d="M0 343L45 343L45 226L90 226L90 289L135 289L135 352L180 352L180 181L225 181L225 289L270 289L270 109L315 109L315 379L360 379L360 298L405 298L405 226L450 226L450 334L495 334L495 262L540 262L540 289L585 289L585 217L630 217L630 190L675 190L675 289L720 289L720 334L765 334L765 208L810 208L810 298L855 298L855 172L900 172L900 370L900 179L900 134L855 134L855 179L810 179L810 134L765 134L765 179L720 179L720 107L675 107L675 107L630 107L630 80L585 80L585 170L540 170L540 197L495 197L495 179L450 179L450 116L405 116L405 170L360 170L360 215L315 215L315 89L270 89L270 179L225 179L225 143L180 143L180 152L135 152L135 152L90 152L90 152L45 152L45 206L0 206Z" fill="#0d232d"></path><path d="M0 469L45 469L45 514L90 514L90 397L135 397L135 568L180 568L180 415L225 415L225 541L270 541L270 442L315 442L315 442L360 442L360 361L405 361L405 397L450 397L450 523L495 523L495 559L540 559L540 532L585 532L585 343L630 343L630 361L675 361L675 514L720 514L720 640L765 640L765 622L810 622L810 532L855 532L855 316L900 316L900 577L900 368L900 170L855 170L855 296L810 296L810 206L765 206L765 332L720 332L720 287L675 287L675 188L630 188L630 215L585 215L585 287L540 287L540 260L495 260L495 332L450 332L450 224L405 224L405 296L360 296L360 377L315 377L315 107L270 107L270 287L225 287L225 179L180 179L180 350L135 350L135 287L90 287L90 224L45 224L45 341L0 341Z" fill="#0d1f2a"></path><path d="M0 586L45 586L45 658L90 658L90 514L135 514L135 631L180 631L180 523L225 523L225 631L270 631L270 604L315 604L315 604L360 604L360 451L405 451L405 442L450 442L450 613L495 613L495 694L540 694L540 658L585 658L585 433L630 433L630 487L675 487L675 541L720 541L720 649L765 649L765 640L810 640L810 685L855 685L855 451L900 451L900 604L900 575L900 314L855 314L855 530L810 530L810 620L765 620L765 638L720 638L720 512L675 512L675 359L630 359L630 341L585 341L585 530L540 530L540 557L495 557L495 521L450 521L450 395L405 395L405 359L360 359L360 440L315 440L315 440L270 440L270 539L225 539L225 413L180 413L180 566L135 566L135 395L90 395L90 512L45 512L45 467L0 467Z" fill="#0d1b26"></path><path d="M0 640L45 640L45 757L90 757L90 559L135 559L135 730L180 730L180 577L225 577L225 721L270 721L270 694L315 694L315 658L360 658L360 460L405 460L405 469L450 469L450 703L495 703L495 721L540 721L540 757L585 757L585 505L630 505L630 559L675 559L675 604L720 604L720 730L765 730L765 748L810 748L810 721L855 721L855 541L900 541L900 622L900 602L900 449L855 449L855 683L810 683L810 638L765 638L765 647L720 647L720 539L675 539L675 485L630 485L630 431L585 431L585 656L540 656L540 692L495 692L495 611L450 611L450 440L405 440L405 449L360 449L360 602L315 602L315 602L270 602L270 629L225 629L225 521L180 521L180 629L135 629L135 512L90 512L90 656L45 656L45 584L0 584Z" fill="#0d1823"></path><path d="M0 829L45 829L45 793L90 793L90 748L135 748L135 829L180 829L180 766L225 766L225 766L270 766L270 775L315 775L315 865L360 865L360 739L405 739L405 721L450 721L450 784L495 784L495 802L540 802L540 793L585 793L585 757L630 757L630 820L675 820L675 856L720 856L720 802L765 802L765 820L810 820L810 811L855 811L855 712L900 712L900 739L900 620L900 539L855 539L855 719L810 719L810 746L765 746L765 728L720 728L720 602L675 602L675 557L630 557L630 503L585 503L585 755L540 755L540 719L495 719L495 701L450 701L450 467L405 467L405 458L360 458L360 656L315 656L315 692L270 692L270 719L225 719L225 575L180 575L180 728L135 728L135 557L90 557L90 755L45 755L45 638L0 638Z" fill="#0c141f"></path><path d="M0 865L45 865L45 829L90 829L90 829L135 829L135 865L180 865L180 802L225 802L225 802L270 802L270 820L315 820L315 874L360 874L360 802L405 802L405 784L450 784L450 829L495 829L495 865L540 865L540 802L585 802L585 811L630 811L630 856L675 856L675 874L720 874L720 811L765 811L765 829L810 829L810 838L855 838L855 802L900 802L900 820L900 737L900 710L855 710L855 809L810 809L810 818L765 818L765 800L720 800L720 854L675 854L675 818L630 818L630 755L585 755L585 791L540 791L540 800L495 800L495 782L450 782L450 719L405 719L405 737L360 737L360 863L315 863L315 773L270 773L270 764L225 764L225 764L180 764L180 827L135 827L135 746L90 746L90 791L45 791L45 827L0 827Z" fill="#0b0f1c"></path><path d="M0 901L45 901L45 901L90 901L90 901L135 901L135 901L180 901L180 901L225 901L225 901L270 901L270 901L315 901L315 901L360 901L360 901L405 901L405 901L450 901L450 901L495 901L495 901L540 901L540 901L585 901L585 901L630 901L630 901L675 901L675 901L720 901L720 901L765 901L765 901L810 901L810 901L855 901L855 901L900 901L900 901L900 818L900 800L855 800L855 836L810 836L810 827L765 827L765 809L720 809L720 872L675 872L675 854L630 854L630 809L585 809L585 800L540 800L540 863L495 863L495 827L450 827L450 782L405 782L405 800L360 800L360 872L315 872L315 818L270 818L270 800L225 800L225 800L180 800L180 863L135 863L135 827L90 827L90 827L45 827L45 863L0 863Z" fill="#090a18"></path></svg>