<svg id="visual" viewBox="0 0 900 600" width="900" height="600" xmlns="http://www.w3.org/2000/svg" xmlnsXlink="http://www.w3.org/1999/xlink" version="1.1" preserveAspectRatio="none">
<path d="M0 7L47 7L47 7L95 7L95 0L142 0L142 55L189 55L189 55L237 55L237 67L284 67L284 19L332 19L332 37L379 37L379 31L426 31L426 25L474 25L474 19L521 19L521 73L568 73L568 73L616 73L616 91L663 91L663 7L711 7L711 19L758 19L758 13L805 13L805 19L853 19L853 91L900 91L900 13L900 0L900 0L853 0L853 0L805 0L805 0L758 0L758 0L711 0L711 0L663 0L663 0L616 0L616 0L568 0L568 0L521 0L521 0L474 0L474 0L426 0L426 0L379 0L379 0L332 0L332 0L284 0L284 0L237 0L237 0L189 0L189 0L142 0L142 0L95 0L95 0L47 0L47 0L0 0Z" fill="#0a0a18"></path><path d="M0 37L47 37L47 13L95 13L95 19L142 19L142 115L189 115L189 97L237 97L237 109L284 109L284 31L332 31L332 49L379 49L379 91L426 91L426 67L474 67L474 73L521 73L521 85L568 85L568 103L616 103L616 103L663 103L663 7L711 7L711 67L758 67L758 25L805 25L805 49L853 49L853 97L900 97L900 67L900 11L900 89L853 89L853 17L805 17L805 11L758 11L758 17L711 17L711 5L663 5L663 89L616 89L616 71L568 71L568 71L521 71L521 17L474 17L474 23L426 23L426 29L379 29L379 35L332 35L332 17L284 17L284 65L237 65L237 53L189 53L189 53L142 53L142 0L95 0L95 5L47 5L47 5L0 5Z" fill="#0c0f1c"></path><path d="M0 73L47 73L47 37L95 37L95 19L142 19L142 187L189 187L189 121L237 121L237 109L284 109L284 43L332 43L332 67L379 67L379 151L426 151L426 115L474 115L474 91L521 91L521 121L568 121L568 157L616 157L616 151L663 151L663 67L711 67L711 85L758 85L758 55L805 55L805 49L853 49L853 163L900 163L900 127L900 65L900 95L853 95L853 47L805 47L805 23L758 23L758 65L711 65L711 5L663 5L663 101L616 101L616 101L568 101L568 83L521 83L521 71L474 71L474 65L426 65L426 89L379 89L379 47L332 47L332 29L284 29L284 107L237 107L237 95L189 95L189 113L142 113L142 17L95 17L95 11L47 11L47 35L0 35Z" fill="#0e1420"></path><path d="M0 319L47 319L47 199L95 199L95 55L142 55L142 295L189 295L189 223L237 223L237 307L284 307L284 343L332 343L332 127L379 127L379 259L426 259L426 163L474 163L474 271L521 271L521 187L568 187L568 445L616 445L616 193L663 193L663 85L711 85L711 139L758 139L758 217L805 217L805 193L853 193L853 271L900 271L900 181L900 125L900 161L853 161L853 47L805 47L805 53L758 53L758 83L711 83L711 65L663 65L663 149L616 149L616 155L568 155L568 119L521 119L521 89L474 89L474 113L426 113L426 149L379 149L379 65L332 65L332 41L284 41L284 107L237 107L237 119L189 119L189 185L142 185L142 17L95 17L95 35L47 35L47 71L0 71Z" fill="#0e1823"></path><path d="M0 385L47 385L47 325L95 325L95 151L142 151L142 349L189 349L189 337L237 337L237 343L284 343L284 385L332 385L332 205L379 205L379 349L426 349L426 229L474 229L474 319L521 319L521 241L568 241L568 451L616 451L616 235L663 235L663 121L711 121L711 223L758 223L758 301L805 301L805 271L853 271L853 313L900 313L900 253L900 179L900 269L853 269L853 191L805 191L805 215L758 215L758 137L711 137L711 83L663 83L663 191L616 191L616 443L568 443L568 185L521 185L521 269L474 269L474 161L426 161L426 257L379 257L379 125L332 125L332 341L284 341L284 305L237 305L237 221L189 221L189 293L142 293L142 53L95 53L95 197L47 197L47 317L0 317Z" fill="#0e1b27"></path><path d="M0 397L47 397L47 343L95 343L95 181L142 181L142 379L189 379L189 343L237 343L237 349L284 349L284 433L332 433L332 205L379 205L379 391L426 391L426 277L474 277L474 331L521 331L521 253L568 253L568 451L616 451L616 241L663 241L663 127L711 127L711 259L758 259L758 373L805 373L805 331L853 331L853 343L900 343L900 295L900 251L900 311L853 311L853 269L805 269L805 299L758 299L758 221L711 221L711 119L663 119L663 233L616 233L616 449L568 449L568 239L521 239L521 317L474 317L474 227L426 227L426 347L379 347L379 203L332 203L332 383L284 383L284 341L237 341L237 335L189 335L189 347L142 347L142 149L95 149L95 323L47 323L47 383L0 383Z" fill="#0e1f2b"></path><path d="M0 439L47 439L47 493L95 493L95 283L142 283L142 457L189 457L189 403L237 403L237 493L284 493L284 439L332 439L332 385L379 385L379 481L426 481L426 343L474 343L474 367L521 367L521 301L568 301L568 511L616 511L616 343L663 343L663 307L711 307L711 391L758 391L758 499L805 499L805 439L853 439L853 451L900 451L900 367L900 293L900 341L853 341L853 329L805 329L805 371L758 371L758 257L711 257L711 125L663 125L663 239L616 239L616 449L568 449L568 251L521 251L521 329L474 329L474 275L426 275L426 389L379 389L379 203L332 203L332 431L284 431L284 347L237 347L237 341L189 341L189 377L142 377L142 179L95 179L95 341L47 341L47 395L0 395Z" fill="#0e232e"></path><path d="M0 487L47 487L47 511L95 511L95 337L142 337L142 499L189 499L189 433L237 433L237 541L284 541L284 475L332 475L332 385L379 385L379 499L426 499L426 385L474 385L474 409L521 409L521 349L568 349L568 523L616 523L616 391L663 391L663 319L711 319L711 445L758 445L758 517L805 517L805 487L853 487L853 463L900 463L900 385L900 365L900 449L853 449L853 437L805 437L805 497L758 497L758 389L711 389L711 305L663 305L663 341L616 341L616 509L568 509L568 299L521 299L521 365L474 365L474 341L426 341L426 479L379 479L379 383L332 383L332 437L284 437L284 491L237 491L237 401L189 401L189 455L142 455L142 281L95 281L95 491L47 491L47 437L0 437Z" fill="#0d2630"></path><path d="M0 559L47 559L47 589L95 589L95 583L142 583L142 553L189 553L189 589L237 589L237 559L284 559L284 559L332 559L332 571L379 571L379 571L426 571L426 553L474 553L474 559L521 559L521 547L568 547L568 547L616 547L616 553L663 553L663 535L711 535L711 589L758 589L758 535L805 535L805 559L853 559L853 577L900 577L900 595L900 383L900 461L853 461L853 485L805 485L805 515L758 515L758 443L711 443L711 317L663 317L663 389L616 389L616 521L568 521L568 347L521 347L521 407L474 407L474 383L426 383L426 497L379 497L379 383L332 383L332 473L284 473L284 539L237 539L237 431L189 431L189 497L142 497L142 335L95 335L95 509L47 509L47 485L0 485Z" fill="#0e2a33"></path><path d="M0 601L47 601L47 601L95 601L95 601L142 601L142 601L189 601L189 601L237 601L237 601L284 601L284 601L332 601L332 601L379 601L379 601L426 601L426 601L474 601L474 601L521 601L521 601L568 601L568 601L616 601L616 601L663 601L663 601L711 601L711 601L758 601L758 601L805 601L805 601L853 601L853 601L900 601L900 601L900 593L900 575L853 575L853 557L805 557L805 533L758 533L758 587L711 587L711 533L663 533L663 551L616 551L616 545L568 545L568 545L521 545L521 557L474 557L474 551L426 551L426 569L379 569L379 569L332 569L332 557L284 557L284 557L237 557L237 587L189 587L189 551L142 551L142 581L95 581L95 587L47 587L47 557L0 557Z" fill="#0f2e35"></path></svg>